<?xml version="1.0" encoding="UTF-8" standalone="no"?>
<!-- Created with Inkscape (http://www.inkscape.org/) -->

<svg
   xmlns:dc="http://purl.org/dc/elements/1.1/"
   xmlns:cc="http://creativecommons.org/ns#"
   xmlns:rdf="http://www.w3.org/1999/02/22-rdf-syntax-ns#"
   xmlns:svg="http://www.w3.org/2000/svg"
   xmlns="http://www.w3.org/2000/svg"
   xmlns:sodipodi="http://sodipodi.sourceforge.net/DTD/sodipodi-0.dtd"
   xmlns:inkscape="http://www.inkscape.org/namespaces/inkscape"
   width="115.09515mm"
   height="96.965622mm"
   viewBox="0 0 407.81745 343.57897"
   id="svg2"
   version="1.1"
   inkscape:version="0.91 r13725"
   sodipodi:docname="logo.svg">
  <defs
     id="defs4">
    <inkscape:path-effect
       effect="spiro"
       id="path-effect4268"
       is_visible="true" />
    <inkscape:path-effect
       effect="spiro"
       id="path-effect4264"
       is_visible="true" />
    <inkscape:path-effect
       effect="spiro"
       id="path-effect4260"
       is_visible="true" />
    <inkscape:path-effect
       effect="spiro"
       id="path-effect4233"
       is_visible="true" />
    <inkscape:path-effect
       effect="spiro"
       id="path-effect4227"
       is_visible="true" />
    <inkscape:path-effect
       effect="spiro"
       id="path-effect4223"
       is_visible="true" />
    <inkscape:path-effect
       effect="spiro"
       id="path-effect4217"
       is_visible="true" />
    <inkscape:path-effect
       effect="spiro"
       id="path-effect4213"
       is_visible="true" />
    <inkscape:path-effect
       effect="spiro"
       id="path-effect4209"
       is_visible="true" />
    <inkscape:path-effect
       effect="spiro"
       id="path-effect4205"
       is_visible="true" />
    <inkscape:path-effect
       effect="spiro"
       id="path-effect4201"
       is_visible="true" />
    <inkscape:path-effect
       effect="spiro"
       id="path-effect4197"
       is_visible="true" />
    <inkscape:path-effect
       effect="spiro"
       id="path-effect4193"
       is_visible="true" />
    <inkscape:path-effect
       effect="spiro"
       id="path-effect4189"
       is_visible="true" />
    <inkscape:path-effect
       effect="skeletal"
       id="path-effect4185"
       is_visible="true"
       pattern="M 0,0 1,0"
       copytype="single_stretched"
       prop_scale="1"
       scale_y_rel="false"
       spacing="0"
       normal_offset="0"
       tang_offset="0"
       prop_units="false"
       vertical_pattern="false"
       fuse_tolerance="0" />
    <inkscape:path-effect
       effect="spiro"
       id="path-effect4183"
       is_visible="true" />
    <inkscape:path-effect
       effect="skeletal"
       id="path-effect4177"
       is_visible="true"
       pattern="M 0,0 1,0"
       copytype="single_stretched"
       prop_scale="1"
       scale_y_rel="false"
       spacing="0"
       normal_offset="0"
       tang_offset="0"
       prop_units="false"
       vertical_pattern="false"
       fuse_tolerance="0" />
    <inkscape:path-effect
       effect="spiro"
       id="path-effect4175"
       is_visible="true" />
    <inkscape:path-effect
       effect="skeletal"
       id="path-effect4171"
       is_visible="true"
       pattern="M 0,0 1,0"
       copytype="single_stretched"
       prop_scale="1"
       scale_y_rel="false"
       spacing="0"
       normal_offset="0"
       tang_offset="0"
       prop_units="false"
       vertical_pattern="false"
       fuse_tolerance="0" />
    <inkscape:path-effect
       effect="spiro"
       id="path-effect4169"
       is_visible="true" />
    <inkscape:path-effect
       effect="skeletal"
       id="path-effect4165"
       is_visible="true"
       pattern="M 0,0 1,0"
       copytype="single_stretched"
       prop_scale="1"
       scale_y_rel="false"
       spacing="0"
       normal_offset="0"
       tang_offset="0"
       prop_units="false"
       vertical_pattern="false"
       fuse_tolerance="0" />
    <inkscape:path-effect
       effect="spiro"
       id="path-effect4233-3"
       is_visible="true" />
  </defs>
  <sodipodi:namedview
     id="base"
     pagecolor="#ffffff"
     bordercolor="#666666"
     borderopacity="1.0"
     inkscape:pageopacity="0.0"
     inkscape:pageshadow="2"
     inkscape:zoom="1.979899"
     inkscape:cx="110.9271"
     inkscape:cy="231.81661"
     inkscape:document-units="px"
     inkscape:current-layer="layer1"
     showgrid="false"
     inkscape:window-width="1920"
     inkscape:window-height="1031"
     inkscape:window-x="0"
     inkscape:window-y="0"
     inkscape:window-maximized="1"
     fit-margin-top="0"
     fit-margin-left="0"
     fit-margin-right="0"
     fit-margin-bottom="0" />
  <metadata
     id="metadata7">
    <rdf:RDF>
      <cc:Work
         rdf:about="">
        <dc:format>image/svg+xml</dc:format>
        <dc:type
           rdf:resource="http://purl.org/dc/dcmitype/StillImage" />
        <dc:title />
      </cc:Work>
    </rdf:RDF>
  </metadata>
  <g
     inkscape:label="Layer 1"
     inkscape:groupmode="layer"
     id="layer1"
     style="display:inline"
     transform="translate(-141.59595,-395.15082)">
    <path
       style="color:#000000;clip-rule:nonzero;display:inline;overflow:visible;visibility:visible;opacity:1;isolation:auto;mix-blend-mode:normal;color-interpolation:sRGB;color-interpolation-filters:linearRGB;solid-color:#000000;solid-opacity:1;fill:#ffffff;fill-opacity:1;fill-rule:nonzero;stroke:none;stroke-width:1;stroke-linecap:round;stroke-linejoin:round;stroke-miterlimit:4;stroke-dasharray:none;stroke-dashoffset:0;stroke-opacity:1;color-rendering:auto;image-rendering:auto;shape-rendering:auto;text-rendering:auto;enable-background:accumulate"
       d="m 191.13358,395.15122 c -13.26481,0.0449 -26.80673,3.86581 -37.02148,11.28321 -7.03865,5.11109 -15.41958,15.63093 -11.52734,23.41015 5.63434,11.26109 20.19205,-13.74568 45.95703,-12.36718 34.21416,1.83053 52.48283,52.17709 36.90038,95.9375 -5.35499,15.03845 -9.97504,33.97985 -10.5957,50.46484 -0.64152,17.03919 -0.3802,34.87107 5.57227,50.84961 4.70532,12.63073 13.43508,23.75119 22.96679,33.28125 17.20514,17.20218 42.16855,24.97992 60.08008,41.44531 15.65198,14.38826 28.78635,49.41612 40.5,49.27344 0.52047,-0.007 1.03156,-0.0992 1.53906,-0.23047 0.50751,0.13128 1.0186,0.22376 1.53907,0.23047 11.71365,0.14268 24.84802,-34.88518 40.5,-49.27344 17.91153,-16.46539 42.87493,-24.24313 60.08007,-41.44531 9.53171,-9.53006 18.26148,-20.65052 22.9668,-33.28125 5.95247,-15.97854 6.21379,-33.81042 5.57227,-50.84961 -0.62066,-16.48499 -5.24072,-35.42639 -10.59571,-50.46484 -15.58245,-43.76041 2.68621,-94.10697 36.90039,-95.9375 25.76497,-1.3785 40.32269,23.62827 45.95703,12.36718 3.89225,-7.77922 -4.48868,-18.29906 -11.52734,-23.41015 -10.21475,-7.4174 -23.75667,-11.23831 -37.02148,-11.28321 -6.94823,-0.0235 -13.82091,0.9883 -20.09961,3.0625 -22.56853,7.45562 -41.3538,28.32159 -50.63867,50.20118 -16.08645,37.90737 11.71462,84.55839 -1.59571,123.52734 -6.68575,19.57403 -20.22927,37.92928 -37.32422,49.57422 -12.83831,8.74537 -29.14445,13.49609 -44.71289,13.49609 -15.56844,0 -31.87457,-4.75072 -44.71289,-13.49609 -17.09495,-11.64494 -30.63847,-30.00019 -37.32422,-49.57422 -13.31033,-38.96895 14.49075,-85.61997 -1.5957,-123.52734 -9.28487,-21.87958 -28.07014,-42.74556 -50.63867,-50.20118 -6.27869,-2.0742 -13.15137,-3.08603 -20.09961,-3.0625 z m 153.58008,82.97657 a 72.946304,71.178543 0 0 0 -72.94531,71.17773 72.946304,71.178543 0 0 0 72.94531,71.17969 72.946304,71.178543 0 0 0 72.94726,-71.17969 72.946304,71.178543 0 0 0 -72.94726,-71.17773 z"
       id="path4231"
       inkscape:connector-curvature="0" />
  </g>
</svg>
